<?xml version="1.0" encoding="iso-8859-1"?>
<!-- Generator: Adobe Illustrator 19.0.0, SVG Export Plug-In . SVG Version: 6.00 Build 0)  -->
<svg version="1.1" id="Capa_1" xmlns="http://www.w3.org/2000/svg" xmlns:xlink="http://www.w3.org/1999/xlink" x="0px" y="0px"
	 viewBox="0 0 512 512" style="enable-background:new 0 0 512 512;" xml:space="preserve">
<g>
	<g>
		<path d="M496,196h-10l-19.92-69.92C450.18,70.888,401.322,31.634,344,28v-8c0-4.418-3.582-8-8-8H176c-4.418,0-8,3.582-8,8v8
			c-57.322,3.634-106.18,42.888-122.08,98.08L26,196H16c-4.418,0-8,3.582-8,8v32c0,4.418,3.582,8,8,8h9.28L64,460.72V484h-8
			c-4.418,0-8,3.582-8,8s3.582,8,8,8h400c4.418,0,8-3.582,8-8s-3.582-8-8-8h-8v-23.28L486.72,244H496c4.418,0,8-3.582,8-8v-32
			C504,199.582,500.418,196,496,196z M184,28h144v16H184V28z M61.36,130.48C75.275,82.157,117.845,47.635,168,44v8
			c0,4.418,3.582,8,8,8h160c4.418,0,8-3.582,8-8v-8c50.155,3.635,92.725,38.157,106.64,86.48L469.36,196H42.64L61.36,130.48z
			 M41.28,244h88l16,88h-88L41.28,244z M60.16,348h88l18.64,104h-88L60.16,348z M161.28,332l-16-88H248v88H161.28z M248,348v104
			h-65.28l-18.56-104H248z M432,484H80v-16h352V484z M347.84,348l-18.56,104H264V348H347.84z M264,332v-88h102.48l-16,88H264z
			 M433.28,452h-88l18.64-104h88L433.28,452z M454.72,332h-88l16-88h88L454.72,332z M488,228H24v-16h464V228z"/>
	</g>
</g>
<g>
	<g>
		<path d="M24,484H8c-4.418,0-8,3.582-8,8s3.582,8,8,8h16c4.418,0,8-3.582,8-8S28.418,484,24,484z"/>
	</g>
</g>
<g>
	<g>
		<path d="M504,484h-16c-4.418,0-8,3.582-8,8s3.582,8,8,8h16c4.418,0,8-3.582,8-8S508.418,484,504,484z"/>
	</g>
</g>
<g>
</g>
<g>
</g>
<g>
</g>
<g>
</g>
<g>
</g>
<g>
</g>
<g>
</g>
<g>
</g>
<g>
</g>
<g>
</g>
<g>
</g>
<g>
</g>
<g>
</g>
<g>
</g>
<g>
</g>
</svg>
