<?xml version="1.0" encoding="iso-8859-1"?>
<!-- Generator: Adobe Illustrator 19.0.0, SVG Export Plug-In . SVG Version: 6.00 Build 0)  -->
<svg version="1.1" id="Capa_1" xmlns="http://www.w3.org/2000/svg" xmlns:xlink="http://www.w3.org/1999/xlink" x="0px" y="0px"
	 viewBox="0 0 504 504" style="enable-background:new 0 0 504 504;" xml:space="preserve">
<g>
	<g>
		<path d="M388,360h-40c-4.418,0-8,3.582-8,8s3.582,8,8,8h40c4.418,0,8-3.582,8-8S392.418,360,388,360z"/>
	</g>
</g>
<g>
	<g>
		<path d="M420,232h-96V56c0-4.418-3.582-8-8-8H156c-4.418,0-8,3.582-8,8v128h-40c-17.673,0-32,14.327-32,32v256
			c0,17.673,14.327,32,32,32h312c4.418,0,8-3.582,8-8V240C428,235.582,424.418,232,420,232z M164,64h144v168H164V64z M108,200h40v32
			h-40c-8.837,0-16-7.163-16-16S99.163,200,108,200z M412,392H292v-48h120V392z M412,328H284c-4.418,0-8,3.582-8,8v64
			c0,4.418,3.582,8,8,8h128v80H108c-8.837,0-16-7.163-16-16V243.52c4.832,2.908,10.36,4.456,16,4.48h304V328z"/>
	</g>
</g>
<g>
	<g>
		<rect x="108" y="456" width="16" height="16"/>
	</g>
</g>
<g>
	<g>
		<rect x="140" y="456" width="16" height="16"/>
	</g>
</g>
<g>
	<g>
		<rect x="172" y="456" width="16" height="16"/>
	</g>
</g>
<g>
	<g>
		<rect x="204" y="456" width="16" height="16"/>
	</g>
</g>
<g>
	<g>
		<rect x="308" y="360" width="16" height="16"/>
	</g>
</g>
<g>
	<g>
		<path d="M396,184h-40V24c0-4.418-3.582-8-8-8H188c-4.418,0-8,3.582-8,8s3.582,8,8,8h152v176c0,4.418,3.582,8,8,8s8-3.582,8-8v-8
			h40c4.418,0,8-3.582,8-8S400.418,184,396,184z"/>
	</g>
</g>
<g>
	<g>
		<path d="M284,144h-8v-8c0-4.418-3.582-8-8-8h-32c-4.418,0-8,3.582-8,8v24h-16v-24c0-4.418-3.582-8-8-8s-8,3.582-8,8v8h-8
			c-4.418,0-8,3.582-8,8s3.582,8,8,8h8v8c0,4.418,3.582,8,8,8h32c4.418,0,8-3.582,8-8v-24h16v24c0,4.418,3.582,8,8,8s8-3.582,8-8v-8
			h8c4.418,0,8-3.582,8-8S288.418,144,284,144z"/>
	</g>
</g>
<g>
	<g>
		<rect x="4" y="16" width="16" height="16"/>
	</g>
</g>
<g>
	<g>
		<rect x="20" width="16" height="16"/>
	</g>
</g>
<g>
	<g>
		<rect x="20" y="32" width="16" height="16"/>
	</g>
</g>
<g>
	<g>
		<rect x="36" y="16" width="16" height="16"/>
	</g>
</g>
<g>
	<g>
		<rect x="20" y="112" width="16" height="16"/>
	</g>
</g>
<g>
	<g>
		<rect x="68" y="64" width="16" height="16"/>
	</g>
</g>
<g>
	<g>
		<rect x="92" y="120" width="16" height="16"/>
	</g>
</g>
<g>
	<g>
		<rect x="108" y="16" width="16" height="16"/>
	</g>
</g>
<g>
	<g>
		<rect x="468" y="4" width="16" height="16"/>
	</g>
</g>
<g>
	<g>
		<rect x="484" y="20" width="16" height="16"/>
	</g>
</g>
<g>
	<g>
		<rect x="452" y="20" width="16" height="16"/>
	</g>
</g>
<g>
	<g>
		<rect x="468" y="36" width="16" height="16"/>
	</g>
</g>
<g>
	<g>
		<rect x="404" y="8" width="16" height="16"/>
	</g>
</g>
<g>
	<g>
		<rect x="428" y="72" width="16" height="16"/>
	</g>
</g>
<g>
	<g>
		<rect x="468" y="136" width="16" height="16"/>
	</g>
</g>
<g>
	<g>
		<rect x="396" y="128" width="16" height="16"/>
	</g>
</g>
<g>
</g>
<g>
</g>
<g>
</g>
<g>
</g>
<g>
</g>
<g>
</g>
<g>
</g>
<g>
</g>
<g>
</g>
<g>
</g>
<g>
</g>
<g>
</g>
<g>
</g>
<g>
</g>
<g>
</g>
</svg>
