<?xml version="1.0" encoding="iso-8859-1"?>
<!-- Generator: Adobe Illustrator 19.0.0, SVG Export Plug-In . SVG Version: 6.00 Build 0)  -->
<svg version="1.1" id="Capa_1" xmlns="http://www.w3.org/2000/svg" xmlns:xlink="http://www.w3.org/1999/xlink" x="0px" y="0px"
	 viewBox="0 0 512 512" style="enable-background:new 0 0 512 512;" xml:space="preserve">
<g>
	<g>
		<path d="M256,264c-59.647,0-108,48.353-108,108c0,59.647,48.353,108,108,108c59.647,0,108-48.353,108-108
			C363.912,312.39,315.61,264.088,256,264z M256,464c-50.81,0-92-41.19-92-92c0-50.81,41.19-92,92-92c50.81,0,92,41.19,92,92
			C347.956,422.792,306.792,463.956,256,464z"/>
	</g>
</g>
<g>
	<g>
		<path d="M323.08,387.08c-4.286-1.569-9.031,0.634-10.6,4.92c-11.421,31.107-45.897,47.065-77.004,35.643
			s-47.065-45.897-35.643-77.003c11.421-31.107,45.897-47.065,77.003-35.644c16.538,6.072,29.571,19.106,35.644,35.644
			c1.568,4.131,6.187,6.208,10.318,4.641c0.001,0,0.001,0,0.002-0.001c4.131-1.568,6.208-6.187,4.641-10.318
			c0-0.001,0-0.001-0.001-0.002C316.089,315.4,287.664,295.92,256,296c-41.973,0.26-75.788,34.496-75.528,76.469
			c0.26,41.973,34.496,75.788,76.469,75.528c31.899-0.198,60.28-20.294,71.059-50.317
			C329.568,393.394,327.366,388.648,323.08,387.08z"/>
	</g>
</g>
<g>
	<g>
		<rect x="316" y="364" width="16" height="16"/>
	</g>
</g>
<g>
	<g>
		<rect x="32" y="464" width="16" height="16"/>
	</g>
</g>
<g>
	<g>
		<rect x="16" y="200" width="16" height="16"/>
	</g>
</g>
<g>
	<g>
		<rect x="480" y="200" width="16" height="16"/>
	</g>
</g>
<g>
	<g>
		<rect x="64" y="464" width="16" height="16"/>
	</g>
</g>
<g>
	<g>
		<path d="M504,232h-40v-16c0-4.418-3.582-8-8-8h-48c-4.418,0-8,3.582-8,8v16h-64.72l-16-81.52c-0.738-3.817-4.113-6.551-8-6.48
			H200.72c-3.887-0.071-7.262,2.663-8,6.48l-16,81.52H128v-24c0-4.418-3.582-8-8-8H56c-4.418,0-8,3.582-8,8v24H8
			c-4.418,0-8,3.582-8,8v264c0,4.418,3.582,8,8,8h496c4.418,0,8-3.582,8-8V240C512,235.582,508.418,232,504,232z M416,224h32v8h-32
			V224z M206.96,160h97.76l3.12,16h-104L206.96,160z M200.72,192h110.32l8,40h-126L200.72,192z M64,216h48v16H64V216z M496,496H16
			V248h480V496z"/>
	</g>
</g>
<g>
	<g>
		<path d="M448,264c-17.673,0-32,14.327-32,32c0,17.673,14.327,32,32,32c17.673,0,32-14.327,32-32C480,278.327,465.673,264,448,264z
			 M448,312c-8.837,0-16-7.163-16-16s7.163-16,16-16s16,7.163,16,16S456.837,312,448,312z"/>
	</g>
</g>
<g>
	<g>
		<path d="M464,96H104c-8.837,0-16-7.163-16-16s7.163-16,16-16h360c17.673,0,32-14.327,32-32S481.673,0,464,0H48
			C30.327,0,16,14.327,16,32v144c0,4.418,3.582,8,8,8s8-3.582,8-8V32c0-8.837,7.163-16,16-16h416c8.837,0,16,7.163,16,16
			s-7.163,16-16,16H104c-17.673,0-32,14.327-32,32s14.327,32,32,32h360c8.837,0,16,7.163,16,16v48c0,4.418,3.582,8,8,8s8-3.582,8-8
			v-48C496,110.327,481.673,96,464,96z"/>
	</g>
</g>
<g>
</g>
<g>
</g>
<g>
</g>
<g>
</g>
<g>
</g>
<g>
</g>
<g>
</g>
<g>
</g>
<g>
</g>
<g>
</g>
<g>
</g>
<g>
</g>
<g>
</g>
<g>
</g>
<g>
</g>
</svg>
