<svg width="24" height="24" viewBox="0 0 24 24" xmlns="http://www.w3.org/2000/svg"><title>9036C8C5-2814-4897-B4B2-F9BF7FDA6C59</title><g transform="translate(2)" fill-rule="evenodd"><path d="M4.778 14.508c0 2.843 2.373 5.155 5.288 5.155 2.916 0 5.288-2.313 5.288-5.155s-2.372-5.155-5.288-5.155c-2.915 0-5.288 2.313-5.288 5.155zm5.288-3.712c2.1 0 3.808 1.666 3.808 3.713 0 2.046-1.709 3.712-3.808 3.712-2.1 0-3.808-1.666-3.808-3.712 0-2.047 1.709-3.713 3.808-3.713z"/><path d="M0 0v24h20V0H0zm18.462 22.5H1.538v-21h16.924v21z"/><ellipse cx="15.928" cy="3.916" rx=".965" ry=".941"/><ellipse cx="12.962" cy="3.916" rx=".965" ry=".941"/><path d="M3.077 3h3.077v1.5H3.077z"/></g></svg>