<svg width="24" height="24" viewBox="0 0 24 24" xmlns="http://www.w3.org/2000/svg"><title>C9B10119-8F1E-4963-B072-49F47A155910</title><g fill-rule="evenodd"><path d="M16.5 5.704V2h-9v3.704H0V22h24V5.704h-7.5zM9 3.48h6v2.223H9V3.48zm13.5 17.04h-21V7.185h21V20.52z"/><path d="M11.977 9.907c-2.36 0-4.278 1.896-4.278 4.226s1.919 4.226 4.278 4.226c2.358 0 4.279-1.897 4.279-4.226 0-2.33-1.92-4.226-4.28-4.226zm0 6.97c-1.532 0-2.778-1.231-2.778-2.744 0-1.513 1.246-2.744 2.778-2.744s2.778 1.231 2.778 2.744c0 1.514-1.246 2.744-2.778 2.744zM18 8.667h3v1.481h-3z"/></g></svg>